<svg width="114.618" height="13.944" viewBox="0 0 114.618 13.944" xmlns="http://www.w3.org/2000/svg"><g id="svgGroup" stroke-linecap="round" fill-rule="evenodd" font-size="9pt" stroke="#ffffff" stroke-width="0.25mm" fill="#ffffff" style="stroke:#ffffff;stroke-width:0.25mm;fill:#ffffff"><path d="M 114.618 10.528 L 114.618 4.032 L 113.666 4.032 L 113.666 5.166 L 113.638 5.166 C 113.12 4.326 112.112 3.864 111.16 3.864 A 3.508 3.508 0 0 0 109.432 4.295 A 3.321 3.321 0 0 0 107.772 7.252 C 107.772 9.17 109.116 10.584 111.16 10.584 A 2.971 2.971 0 0 0 111.502 10.564 A 2.932 2.932 0 0 0 113.638 9.296 L 113.666 9.296 L 113.666 10.528 C 113.666 11.942 112.98 13.104 111.104 13.104 A 3.371 3.371 0 0 1 109.035 12.344 A 2.745 2.745 0 0 1 108.598 11.9 L 107.912 12.628 C 108.682 13.44 109.858 13.944 111.062 13.944 A 5.065 5.065 0 0 0 112.153 13.834 C 114.037 13.418 114.568 11.91 114.615 10.707 A 4.633 4.633 0 0 0 114.618 10.528 Z M 10.052 5.11 L 10.052 0 L 9.1 0 L 9.1 10.584 L 10.052 10.584 L 10.052 7.224 A 3.794 3.794 0 0 1 10.157 6.305 C 10.436 5.188 11.229 4.662 12.04 4.662 C 13.412 4.662 13.818 5.586 13.818 6.958 L 13.818 10.584 L 14.77 10.584 L 14.77 6.566 A 3.612 3.612 0 0 0 14.584 5.367 C 14.311 4.59 13.734 4.065 12.85 3.911 A 3.327 3.327 0 0 0 12.278 3.864 A 2.655 2.655 0 0 0 10.514 4.526 A 1.86 1.86 0 0 0 10.08 5.11 L 10.052 5.11 Z M 26.306 7.98 L 31.43 7.98 L 32.522 10.584 L 33.642 10.584 L 29.386 0.672 L 28.406 0.672 L 24.122 10.584 L 25.228 10.584 L 26.306 7.98 Z M 40.432 9.478 L 40.46 9.478 L 40.46 10.584 L 41.412 10.584 L 41.412 0 L 40.46 0 L 40.46 5.166 L 40.432 5.166 A 2.932 2.932 0 0 0 38.531 3.92 C 38.425 3.899 38.318 3.884 38.211 3.875 A 2.99 2.99 0 0 0 37.954 3.864 C 35.91 3.864 34.566 5.376 34.566 7.308 C 34.566 9.052 35.661 10.454 37.378 10.71 A 3.9 3.9 0 0 0 37.954 10.752 A 2.999 2.999 0 0 0 38.211 10.741 A 3.005 3.005 0 0 0 40.432 9.478 Z M 58.8 5.474 L 58.8 10.584 L 59.752 10.584 L 59.752 7.224 A 3.794 3.794 0 0 1 59.857 6.305 C 60.136 5.188 60.929 4.662 61.74 4.662 C 63.112 4.662 63.518 5.586 63.518 6.958 L 63.518 10.584 L 64.47 10.584 L 64.47 6.566 A 3.612 3.612 0 0 0 64.284 5.367 C 64.011 4.59 63.434 4.065 62.55 3.911 A 3.327 3.327 0 0 0 61.978 3.864 A 2.448 2.448 0 0 0 61.852 3.867 C 61.15 3.903 60.448 4.238 60.015 4.736 A 1.879 1.879 0 0 0 59.738 5.152 L 59.71 5.152 A 6.072 6.072 0 0 0 59.708 5.013 C 59.702 4.73 59.678 4.335 59.655 4.039 A 17.117 17.117 0 0 0 59.654 4.032 L 58.744 4.032 A 8.899 8.899 0 0 1 58.764 4.283 C 58.79 4.696 58.8 5.185 58.8 5.474 Z M 76.986 9.142 L 76.986 4.032 L 76.034 4.032 L 76.034 7.392 A 3.794 3.794 0 0 1 75.929 8.311 C 75.65 9.428 74.857 9.954 74.046 9.954 C 72.674 9.954 72.268 9.03 72.268 7.658 L 72.268 4.032 L 71.316 4.032 L 71.316 8.05 A 3.612 3.612 0 0 0 71.502 9.249 C 71.775 10.026 72.352 10.551 73.236 10.705 A 3.327 3.327 0 0 0 73.808 10.752 A 2.448 2.448 0 0 0 73.934 10.749 C 74.636 10.713 75.338 10.378 75.771 9.88 A 1.879 1.879 0 0 0 76.048 9.464 L 76.076 9.464 A 6.072 6.072 0 0 0 76.078 9.603 C 76.084 9.886 76.108 10.281 76.131 10.577 A 17.117 17.117 0 0 0 76.132 10.584 L 77.042 10.584 A 8.899 8.899 0 0 1 77.022 10.333 C 76.996 9.92 76.986 9.431 76.986 9.142 Z M 4.326 1.568 L 7.644 1.568 L 7.644 0.672 L 0 0.672 L 0 1.568 L 3.318 1.568 L 3.318 10.584 L 4.326 10.584 L 4.326 1.568 Z M 22.96 9.366 L 22.246 8.806 C 21.951 9.282 21.4 9.731 20.68 9.884 A 2.556 2.556 0 0 1 20.146 9.94 A 2.357 2.357 0 0 1 18.377 9.161 A 2.46 2.46 0 0 1 17.752 7.56 L 23.184 7.56 A 3.95 3.95 0 0 0 23.196 7.334 C 23.197 7.274 23.198 7.217 23.198 7.164 A 27.615 27.615 0 0 0 23.198 7.112 C 23.198 5.32 22.12 3.864 20.062 3.864 A 3.262 3.262 0 0 0 16.824 6.593 A 3.867 3.867 0 0 0 16.758 7.308 C 16.758 9.199 18.081 10.627 19.902 10.744 A 3.794 3.794 0 0 0 20.146 10.752 A 3.371 3.371 0 0 0 22.546 9.821 A 4.143 4.143 0 0 0 22.96 9.366 Z M 56.518 9.366 L 55.804 8.806 C 55.509 9.282 54.958 9.731 54.238 9.884 A 2.556 2.556 0 0 1 53.704 9.94 A 2.357 2.357 0 0 1 51.935 9.161 A 2.46 2.46 0 0 1 51.31 7.56 L 56.742 7.56 A 3.95 3.95 0 0 0 56.754 7.334 C 56.755 7.274 56.756 7.217 56.756 7.164 A 27.615 27.615 0 0 0 56.756 7.112 C 56.756 5.32 55.678 3.864 53.62 3.864 A 3.262 3.262 0 0 0 50.382 6.593 A 3.867 3.867 0 0 0 50.316 7.308 C 50.316 9.199 51.639 10.627 53.46 10.744 A 3.794 3.794 0 0 0 53.704 10.752 A 3.371 3.371 0 0 0 56.104 9.821 A 4.143 4.143 0 0 0 56.518 9.366 Z M 90.272 9.366 L 89.558 8.806 C 89.263 9.282 88.712 9.731 87.992 9.884 A 2.556 2.556 0 0 1 87.458 9.94 A 2.357 2.357 0 0 1 85.689 9.161 A 2.46 2.46 0 0 1 85.064 7.56 L 90.496 7.56 A 3.95 3.95 0 0 0 90.508 7.334 C 90.509 7.274 90.51 7.217 90.51 7.164 A 27.615 27.615 0 0 0 90.51 7.112 C 90.51 5.32 89.432 3.864 87.374 3.864 A 3.262 3.262 0 0 0 84.136 6.593 A 3.867 3.867 0 0 0 84.07 7.308 C 84.07 9.199 85.393 10.627 87.214 10.744 A 3.794 3.794 0 0 0 87.458 10.752 A 3.371 3.371 0 0 0 89.858 9.821 A 4.143 4.143 0 0 0 90.272 9.366 Z M 93.618 0.672 L 92.61 0.672 L 92.61 10.584 L 98.238 10.584 L 98.238 9.688 L 93.618 9.688 L 93.618 0.672 Z M 49.308 4.032 L 48.286 4.032 L 46.144 9.576 L 46.116 9.576 L 43.988 4.032 L 42.924 4.032 L 45.598 10.584 L 46.648 10.584 L 49.308 4.032 Z M 69.888 4.032 L 68.04 4.032 L 68.04 2.184 L 67.088 2.184 L 67.088 4.032 L 65.73 4.032 L 65.73 4.83 L 67.088 4.83 L 67.088 8.918 A 2.534 2.534 0 0 0 67.141 9.456 C 67.355 10.44 68.165 10.668 68.768 10.668 A 3.441 3.441 0 0 0 69.242 10.637 A 2.978 2.978 0 0 0 69.888 10.472 L 69.846 9.646 C 69.615 9.762 69.336 9.842 69.086 9.854 A 1.338 1.338 0 0 1 69.02 9.856 A 1.189 1.189 0 0 1 68.519 9.765 C 68.224 9.629 68.04 9.311 68.04 8.652 L 68.04 4.83 L 69.888 4.83 L 69.888 4.032 Z M 106.204 7.308 A 3.469 3.469 0 0 0 105.492 5.151 C 104.973 4.486 104.199 4.033 103.269 3.903 A 4.063 4.063 0 0 0 102.704 3.864 C 100.775 3.864 99.364 5.192 99.229 7.019 A 3.926 3.926 0 0 0 99.218 7.308 A 3.476 3.476 0 0 0 99.923 9.457 C 100.445 10.132 101.228 10.59 102.167 10.716 A 4.021 4.021 0 0 0 102.704 10.752 C 104.656 10.752 106.071 9.412 106.195 7.572 A 3.933 3.933 0 0 0 106.204 7.308 Z M 79.506 5.474 L 79.506 10.584 L 80.458 10.584 L 80.458 7.224 C 80.458 5.474 81.368 4.746 82.376 4.746 C 82.628 4.746 82.936 4.788 83.048 4.83 L 83.174 3.934 C 82.978 3.878 82.782 3.864 82.544 3.864 A 2.371 2.371 0 0 0 80.994 4.438 A 2.219 2.219 0 0 0 80.444 5.152 L 80.416 5.152 A 6.072 6.072 0 0 0 80.414 5.013 C 80.408 4.73 80.384 4.335 80.361 4.039 A 17.117 17.117 0 0 0 80.36 4.032 L 79.45 4.032 A 8.899 8.899 0 0 1 79.47 4.283 C 79.496 4.696 79.506 5.185 79.506 5.474 Z M 35.574 7.308 C 35.574 5.852 36.47 4.662 38.052 4.662 A 2.464 2.464 0 0 1 39.658 5.23 C 40.144 5.637 40.465 6.236 40.55 6.934 A 3.102 3.102 0 0 1 40.572 7.308 A 2.783 2.783 0 0 1 40.133 8.845 C 39.72 9.474 39.042 9.886 38.219 9.935 A 2.804 2.804 0 0 1 38.052 9.94 A 2.594 2.594 0 0 1 36.912 9.695 C 36.047 9.276 35.574 8.366 35.574 7.308 Z M 104.753 8.877 A 2.845 2.845 0 0 0 105.196 7.308 C 105.196 5.838 104.23 4.662 102.704 4.662 A 2.784 2.784 0 0 0 102.398 4.679 C 101.063 4.826 100.226 5.94 100.226 7.308 A 3.2 3.2 0 0 0 100.264 7.804 C 100.385 8.576 100.79 9.222 101.407 9.595 A 2.477 2.477 0 0 0 102.704 9.94 C 103.616 9.94 104.328 9.525 104.753 8.877 Z M 108.78 7.224 C 108.78 5.852 109.676 4.662 111.258 4.662 A 2.475 2.475 0 0 1 112.847 5.222 A 2.588 2.588 0 0 1 113.778 7.224 C 113.778 8.617 112.887 9.606 111.597 9.753 A 2.992 2.992 0 0 1 111.258 9.772 A 2.624 2.624 0 0 1 110.132 9.535 C 109.272 9.13 108.795 8.254 108.78 7.271 A 3.141 3.141 0 0 1 108.78 7.224 Z M 28.868 1.792 L 31.052 7.056 L 26.684 7.056 L 28.868 1.792 Z M 22.232 6.804 L 17.766 6.804 A 2.334 2.334 0 0 1 19.615 4.705 A 2.306 2.306 0 0 1 20.062 4.662 A 2.417 2.417 0 0 1 20.991 4.833 C 21.763 5.153 22.19 5.89 22.232 6.804 Z M 55.79 6.804 L 51.324 6.804 A 2.334 2.334 0 0 1 53.173 4.705 A 2.306 2.306 0 0 1 53.62 4.662 A 2.417 2.417 0 0 1 54.549 4.833 C 55.321 5.153 55.748 5.89 55.79 6.804 Z M 89.544 6.804 L 85.078 6.804 A 2.334 2.334 0 0 1 86.927 4.705 A 2.306 2.306 0 0 1 87.374 4.662 A 2.417 2.417 0 0 1 88.303 4.833 C 89.075 5.153 89.502 5.89 89.544 6.804 Z" vector-effect="non-scaling-stroke"/></g></svg>