<svg width="111.294" height="13.86" viewBox="0 0 111.294 13.86" xmlns="http://www.w3.org/2000/svg"><g id="svgGroup" stroke-linecap="round" fill-rule="evenodd" font-size="9pt" stroke="#ffffff" stroke-width="0" fill="#ffffff" style="stroke:#ffffff;stroke-width:0;fill:#ffffff"><path d="M 13.68 6.174 L 13.644 6.174 L 13.644 0 L 11.484 0 L 11.484 13.608 L 13.644 13.608 L 13.644 8.892 C 13.644 7.781 14.263 6.654 15.534 6.574 A 2.315 2.315 0 0 1 15.678 6.57 A 1.73 1.73 0 0 1 16.262 6.662 C 17.128 6.971 17.28 7.996 17.28 8.856 L 17.28 13.608 L 19.44 13.608 L 19.44 8.208 A 3.647 3.647 0 0 0 18.342 5.432 C 17.973 5.108 17.505 4.875 16.929 4.773 A 3.873 3.873 0 0 0 16.254 4.716 A 3.143 3.143 0 0 0 15.135 4.918 C 14.428 5.187 13.912 5.685 13.68 6.174 Z M 3.906 13.608 L 6.174 13.608 L 6.174 2.844 L 10.08 2.844 L 10.08 0.864 L 0 0.864 L 0 2.844 L 3.906 2.844 L 3.906 13.608 Z M 34.974 13.608 L 37.242 13.608 L 37.242 2.844 L 41.148 2.844 L 41.148 0.864 L 31.068 0.864 L 31.068 2.844 L 34.974 2.844 L 34.974 13.608 Z M 86.04 13.608 L 88.308 13.608 L 88.308 2.844 L 92.214 2.844 L 92.214 0.864 L 82.134 0.864 L 82.134 2.844 L 86.04 2.844 L 86.04 13.608 Z M 29.808 12.132 L 28.368 10.98 A 2.51 2.51 0 0 1 26.952 11.986 C 26.692 12.058 26.403 12.096 26.082 12.096 A 2.561 2.561 0 0 1 24.086 11.161 A 2.149 2.149 0 0 1 23.616 9.972 L 30.186 9.972 C 30.204 9.774 30.204 9.594 30.204 9.396 A 6.436 6.436 0 0 0 29.963 7.577 C 29.415 5.717 27.983 4.762 26.161 4.718 A 5.491 5.491 0 0 0 26.028 4.716 C 23.757 4.716 21.977 6.106 21.552 8.305 A 5.47 5.47 0 0 0 21.456 9.342 A 4.855 4.855 0 0 0 21.915 11.475 C 22.545 12.775 23.775 13.599 25.31 13.808 A 5.865 5.865 0 0 0 26.1 13.86 A 5.525 5.525 0 0 0 27.612 13.665 A 4.013 4.013 0 0 0 29.808 12.132 Z M 76.05 12.132 L 74.61 10.98 A 2.51 2.51 0 0 1 73.194 11.986 C 72.934 12.058 72.645 12.096 72.324 12.096 A 2.561 2.561 0 0 1 70.328 11.161 A 2.149 2.149 0 0 1 69.858 9.972 L 76.428 9.972 C 76.446 9.774 76.446 9.594 76.446 9.396 A 6.436 6.436 0 0 0 76.205 7.577 C 75.657 5.717 74.225 4.762 72.403 4.718 A 5.491 5.491 0 0 0 72.27 4.716 C 69.999 4.716 68.219 6.106 67.794 8.305 A 5.47 5.47 0 0 0 67.698 9.342 A 4.855 4.855 0 0 0 68.157 11.475 C 68.787 12.775 70.017 13.599 71.552 13.808 A 5.865 5.865 0 0 0 72.342 13.86 A 5.525 5.525 0 0 0 73.854 13.665 A 4.013 4.013 0 0 0 76.05 12.132 Z M 101.43 12.132 L 99.99 10.98 A 2.51 2.51 0 0 1 98.574 11.986 C 98.314 12.058 98.025 12.096 97.704 12.096 A 2.561 2.561 0 0 1 95.708 11.161 A 2.149 2.149 0 0 1 95.238 9.972 L 101.808 9.972 C 101.826 9.774 101.826 9.594 101.826 9.396 A 6.436 6.436 0 0 0 101.585 7.577 C 101.037 5.717 99.605 4.762 97.783 4.718 A 5.491 5.491 0 0 0 97.65 4.716 C 95.379 4.716 93.599 6.106 93.174 8.305 A 5.47 5.47 0 0 0 93.078 9.342 A 4.855 4.855 0 0 0 93.537 11.475 C 94.167 12.775 95.397 13.599 96.932 13.808 A 5.865 5.865 0 0 0 97.722 13.86 A 5.525 5.525 0 0 0 99.234 13.665 A 4.013 4.013 0 0 0 101.43 12.132 Z M 54.432 13.608 L 56.448 13.608 L 56.448 8.352 A 5.538 5.538 0 0 0 56.43 7.902 C 56.3 6.309 55.425 4.716 52.596 4.716 C 51.282 4.716 49.914 5.184 48.942 6.084 L 50.058 7.398 A 3.442 3.442 0 0 1 51.064 6.711 A 3.3 3.3 0 0 1 52.416 6.408 A 2.665 2.665 0 0 1 53.457 6.602 C 54.018 6.842 54.396 7.303 54.396 7.992 L 54.396 8.208 A 23.38 23.38 0 0 0 53.217 8.235 C 50.847 8.355 48.478 8.93 48.456 11.112 A 3.042 3.042 0 0 0 48.456 11.142 C 48.456 13.095 50.195 13.781 51.564 13.822 A 4.388 4.388 0 0 0 51.696 13.824 A 3.75 3.75 0 0 0 52.992 13.599 C 53.384 13.454 53.723 13.247 53.988 12.999 A 2.117 2.117 0 0 0 54.378 12.51 L 54.432 12.51 L 54.432 13.608 Z M 109.278 13.608 L 111.294 13.608 L 111.294 8.352 A 5.538 5.538 0 0 0 111.276 7.902 C 111.146 6.309 110.271 4.716 107.442 4.716 C 106.128 4.716 104.76 5.184 103.788 6.084 L 104.904 7.398 A 3.442 3.442 0 0 1 105.91 6.711 A 3.3 3.3 0 0 1 107.262 6.408 A 2.665 2.665 0 0 1 108.303 6.602 C 108.864 6.842 109.242 7.303 109.242 7.992 L 109.242 8.208 A 23.38 23.38 0 0 0 108.063 8.235 C 105.693 8.355 103.324 8.93 103.302 11.112 A 3.042 3.042 0 0 0 103.302 11.142 C 103.302 13.095 105.041 13.781 106.41 13.822 A 4.388 4.388 0 0 0 106.542 13.824 A 3.75 3.75 0 0 0 107.838 13.599 C 108.23 13.454 108.569 13.247 108.834 12.999 A 2.117 2.117 0 0 0 109.224 12.51 L 109.278 12.51 L 109.278 13.608 Z M 61.164 13.608 L 63.468 13.608 L 66.906 4.968 L 64.62 4.968 L 62.334 11.268 L 62.298 11.268 L 60.03 4.968 L 57.672 4.968 L 61.164 13.608 Z M 78.57 13.608 L 80.73 13.608 L 80.73 0 L 78.57 0 L 78.57 13.608 Z M 42.516 13.608 L 44.676 13.608 L 44.676 8.982 C 44.676 8.352 45.054 6.66 46.998 6.66 C 47.158 6.66 47.306 6.672 47.508 6.714 A 4.116 4.116 0 0 1 47.664 6.75 L 47.664 4.77 A 1.32 1.32 0 0 0 47.563 4.749 C 47.45 4.731 47.318 4.72 47.203 4.717 A 2.431 2.431 0 0 0 47.142 4.716 C 46.008 4.716 45.09 5.418 44.622 6.408 L 44.586 6.408 L 44.586 4.968 L 42.516 4.968 L 42.516 13.608 Z M 28.044 8.424 L 23.616 8.424 A 2.27 2.27 0 0 1 25.622 6.364 A 2.704 2.704 0 0 1 26.01 6.336 A 2.388 2.388 0 0 1 26.822 6.467 C 27.561 6.733 27.948 7.375 28.028 8.122 A 2.825 2.825 0 0 1 28.044 8.424 Z M 74.286 8.424 L 69.858 8.424 A 2.27 2.27 0 0 1 71.864 6.364 A 2.704 2.704 0 0 1 72.252 6.336 A 2.388 2.388 0 0 1 73.064 6.467 C 73.803 6.733 74.19 7.375 74.27 8.122 A 2.825 2.825 0 0 1 74.286 8.424 Z M 99.666 8.424 L 95.238 8.424 A 2.27 2.27 0 0 1 97.244 6.364 A 2.704 2.704 0 0 1 97.632 6.336 A 2.388 2.388 0 0 1 98.444 6.467 C 99.183 6.733 99.57 7.375 99.65 8.122 A 2.825 2.825 0 0 1 99.666 8.424 Z M 53.91 9.666 L 54.396 9.666 L 54.396 9.972 A 2.672 2.672 0 0 1 54.221 10.97 C 53.991 11.541 53.54 11.934 52.885 12.099 A 3.105 3.105 0 0 1 52.128 12.186 A 3.166 3.166 0 0 1 52.029 12.184 C 51.374 12.164 50.719 11.935 50.627 11.271 A 1.198 1.198 0 0 1 50.616 11.106 A 1.135 1.135 0 0 1 51.35 10.062 C 52.036 9.726 53.076 9.666 53.91 9.666 Z M 108.756 9.666 L 109.242 9.666 L 109.242 9.972 A 2.672 2.672 0 0 1 109.067 10.97 C 108.837 11.541 108.386 11.934 107.731 12.099 A 3.105 3.105 0 0 1 106.974 12.186 A 3.166 3.166 0 0 1 106.875 12.184 C 106.22 12.164 105.565 11.935 105.473 11.271 A 1.198 1.198 0 0 1 105.462 11.106 A 1.135 1.135 0 0 1 106.196 10.062 C 106.882 9.726 107.922 9.666 108.756 9.666 Z" vector-effect="non-scaling-stroke"/></g></svg>